<svg xmlns="http://www.w3.org/2000/svg" xmlns:xlink="http://www.w3.org/1999/xlink" width="113" zoomAndPan="magnify" viewBox="0 0 84.75 83.999999" height="112" preserveAspectRatio="xMidYMid meet" version="1.0"><defs><clipPath id="ec7615acfb"><path d="M 0 0.125 L 84.5 0.125 L 84.5 83.875 L 0 83.875 Z M 0 0.125 " clip-rule="nonzero"/></clipPath><clipPath id="4b61fd661f"><path d="M 30.351562 55.824219 L 81.867188 55.824219 L 81.867188 72.996094 L 30.351562 72.996094 Z M 30.351562 55.824219 " clip-rule="nonzero"/></clipPath><clipPath id="252a398bfa"><path d="M 0.351562 1.539062 L 51.867188 1.539062 L 51.867188 17.996094 L 0.351562 17.996094 Z M 0.351562 1.539062 " clip-rule="nonzero"/></clipPath><clipPath id="05d9e1815a"><rect x="0" width="52" y="0" height="18"/></clipPath><clipPath id="e2ad12c2d4"><path d="M 30 0.125 L 72 0.125 L 72 54 L 30 54 Z M 30 0.125 " clip-rule="nonzero"/></clipPath><clipPath id="4fcd3fbe3b"><path d="M 45.820312 0.136719 L 71.675781 44.695312 L 56.824219 53.3125 L 30.964844 8.753906 Z M 45.820312 0.136719 " clip-rule="nonzero"/></clipPath><clipPath id="147dc57864"><path d="M 6 0.125 L 37 0.125 L 37 53.484375 L 6 53.484375 Z M 6 0.125 " clip-rule="nonzero"/></clipPath><clipPath id="dfd938f5da"><path d="M 15.820312 0.136719 L 41.675781 44.695312 L 26.824219 53.3125 L 0.964844 8.753906 Z M 15.820312 0.136719 " clip-rule="nonzero"/></clipPath><clipPath id="9809b99a6d"><path d="M 0.347656 9.113281 L 26.203125 53.671875 L 41.058594 45.054688 L 15.199219 0.496094 Z M 0.347656 9.113281 " clip-rule="nonzero"/></clipPath><clipPath id="d2d52ec9f9"><rect x="0" width="42" y="0" height="54"/></clipPath><clipPath id="3a652900d0"><path d="M 0 30 L 41 30 L 41 83.875 L 0 83.875 Z M 0 30 " clip-rule="nonzero"/></clipPath><clipPath id="9a84459650"><path d="M -0.00390625 74.796875 L 25.546875 30.0625 L 40.457031 38.582031 L 14.90625 83.316406 Z M -0.00390625 74.796875 " clip-rule="nonzero"/></clipPath><clipPath id="94dab41137"><path d="M 0 4 L 40.679688 4 L 40.679688 48 L 0 48 Z M 0 4 " clip-rule="nonzero"/></clipPath><clipPath id="682ec7c87d"><path d="M -0.00390625 44.796875 L 25.546875 0.0625 L 40.457031 8.582031 L 14.90625 53.316406 Z M -0.00390625 44.796875 " clip-rule="nonzero"/></clipPath><clipPath id="78252742a6"><path d="M 15.527344 53.667969 L 41.078125 8.933594 L 26.167969 0.417969 L 0.617188 45.152344 Z M 15.527344 53.667969 " clip-rule="nonzero"/></clipPath><clipPath id="471f383443"><rect x="0" width="41" y="0" height="54"/></clipPath><clipPath id="a18ef3181b"><rect x="0" width="85" y="0" height="84"/></clipPath></defs><g clip-path="url(#ec7615acfb)"><g transform="matrix(1, 0, 0, 1, 0, 0.000000000000007522)"><g clip-path="url(#a18ef3181b)"><g clip-path="url(#4b61fd661f)"><g transform="matrix(1, 0, 0, 1, 30, 55)"><g clip-path="url(#05d9e1815a)"><g clip-path="url(#252a398bfa)"><path fill="#08a698" d="M 54.285156 18.707031 L 18.234375 18.707031 C 8.355469 18.707031 0.351562 10.703125 0.351562 0.828125 L 36.402344 0.828125 C 46.277344 0.828125 54.285156 8.832031 54.285156 18.707031 Z M 54.285156 18.707031 " fill-opacity="1" fill-rule="nonzero"/></g></g></g></g><g clip-path="url(#e2ad12c2d4)"><g clip-path="url(#4fcd3fbe3b)"><g transform="matrix(1, 0, 0, 1, 30, 0.000000000000007522)"><g clip-path="url(#d2d52ec9f9)"><g clip-path="url(#147dc57864)"><g clip-path="url(#dfd938f5da)"><g clip-path="url(#9809b99a6d)"><path fill="#08a698" d="M 27.421875 55.757812 L 18.398438 40.210938 L 9.375 24.660156 L 9.324219 24.578125 C 4.367188 16.035156 7.273438 5.09375 15.816406 0.136719 L 24.839844 15.6875 L 33.863281 31.234375 L 33.910156 31.320312 C 38.867188 39.859375 35.960938 50.800781 27.421875 55.757812 Z M 27.421875 55.757812 " fill-opacity="1" fill-rule="nonzero"/></g></g></g></g></g></g></g><g clip-path="url(#3a652900d0)"><g clip-path="url(#9a84459650)"><g transform="matrix(1, 0, 0, 1, 0, 30)"><g clip-path="url(#471f383443)"><g clip-path="url(#94dab41137)"><g clip-path="url(#682ec7c87d)"><g clip-path="url(#78252742a6)"><path fill="#08a698" d="M 42.273438 6.835938 L 33.359375 22.445312 L 24.441406 38.058594 L 24.394531 38.140625 C 19.496094 46.714844 8.574219 49.699219 0 44.800781 L 8.914062 29.1875 L 17.832031 13.578125 L 17.878906 13.496094 C 22.777344 4.917969 33.699219 1.9375 42.273438 6.835938 Z M 42.273438 6.835938 " fill-opacity="1" fill-rule="nonzero"/></g></g></g></g></g></g></g></g></g></g></svg>